# xmcd
#
# Track frame offsets: 
#        150
#        7680
#        32925
#        53311
#        74585
#        99300
#        122892
#        143205
#        178637
#        205525
#        229275
#        261101
#
# Disc length: 3824 seconds
#
# Revision: 1
# Processed by: cddbd v1.5.2PL0 Copyright (c) Steve Scherf et al.
# Submitted via: ExactAudioCopyFreeDBPlugin 1.0
#
DISCID=9c0eee0c
DTITLE=Isballa Lundgrem - Somehow life got in the way
DYEAR=1900
DGENRE=A Cappella
TTITLE0=Unbekannter Titel
TTITLE1=Unbekannter Titel
TTITLE2=Unbekannter Titel
TTITLE3=Unbekannter Titel
TTITLE4=Unbekannter Titel
TTITLE5=Unbekannter Titel
TTITLE6=Unbekannter Titel
TTITLE7=Unbekannter Titel
TTITLE8=Unbekannter Titel
TTITLE9=Unbekannter Titel
TTITLE10=Unbekannter Titel
TTITLE11=Unbekannter Titel
EXTD=
EXTT0=
EXTT1=
EXTT2=
EXTT3=
EXTT4=
EXTT5=
EXTT6=
EXTT7=
EXTT8=
EXTT9=
EXTT10=
EXTT11=
PLAYORDER=
